<?xml version="1.0" encoding="UTF-8"?>
<svg id="Layer_1" data-name="Layer 1" xmlns="http://www.w3.org/2000/svg" xmlns:xlink="http://www.w3.org/1999/xlink" viewBox="0 0 1614.86 313.05">
  <defs>
    <style>
      .cls-1 {
        fill: #0f63a4;
        stroke: #0f63a4;
        stroke-miterlimit: 10;
      }

      .cls-2 {
        filter: url(#drop-shadow-1);
      }
    </style>
    <filter id="drop-shadow-1" filterUnits="userSpaceOnUse">
      <feOffset dx="0" dy="0"/>
      <feGaussianBlur result="blur" stdDeviation="5"/>
      <feFlood flood-color="#fff" flood-opacity=".75"/>
      <feComposite in2="blur" operator="in"/>
      <feComposite in="SourceGraphic"/>
    </filter>
  </defs>
  <g>
    <path class="cls-1" d="m370.5,174.36v-35.13c0-5.87,2.63-11.43,7.16-15.16L522.46,5c12.81-10.53,32.09-1.42,32.09,15.16h0c0,5.92-2.67,11.53-7.28,15.25l-131.42,106.41c-9.74,7.88-9.7,22.74.08,30.57l131.26,105.1c4.65,3.72,7.36,9.36,7.36,15.32v.06c0,16.56-19.24,25.68-32.06,15.19l-144.8-118.53c-4.55-3.73-7.2-9.3-7.2-15.19Z"/>
    <path class="cls-1" d="m1439.6,292.39v-.07c0-5.66,2.5-11.03,6.83-14.68l125.54-105.87c9.07-7.65,9.11-21.6.08-29.3l-125.7-107.19c-4.28-3.65-6.75-8.99-6.75-14.62h0c0-16.46,19.34-25.29,31.78-14.52l136.34,118.07c4.21,3.65,6.63,8.95,6.63,14.52v36.12c0,5.59-2.43,10.9-6.67,14.55l-136.34,117.54c-12.45,10.73-31.75,1.89-31.75-14.55Z"/>
    <g>
      <path class="cls-1" d="m754.96,19.21v170.4c0,26.15-2.36,46.06-7.04,59.75-4.69,13.67-13.84,24.5-27.44,32.49-13.61,7.99-32.03,11.99-55.27,11.99-20.48,0-38.98-2.2-55.48-6.54v-64.61c11.62,3.31,22.45,4.96,32.49,4.96,11.89,0,20.34-2.74,25.36-8.21,5.02-5.48,7.54-15.42,7.54-29.83V19.21h79.85Z"/>
      <path class="cls-1" d="m1093.37,19.21v270.46h-77.08V96.29l-50.03,193.38h-52.71l-52-193.38v193.38h-62.22V19.21h108.47l39.24,143.65,37.45-143.65h108.88Z"/>
      <path class="cls-1" d="m1384.45,289.67h-90.83l-46.77-102.21-28.05,39.79v62.41h-78.25V19.21h78.25v111.84l74.6-111.84h74.6l-68.28,98.99,84.74,171.48Z"/>
    </g>
  </g>
  <image class="cls-2" width="512" height="512" transform="translate(11.87 12.12) scale(.56)" xlink:href="../../../../Downloads/programming.png"/>
</svg>