<?xml version="1.0" encoding="UTF-8"?>
<svg id="Layer_1" data-name="Layer 1" xmlns="http://www.w3.org/2000/svg" xmlns:xlink="http://www.w3.org/1999/xlink" viewBox="0 0 298.66 375.18">
  <defs>
    <style>
      .cls-1 {
        fill: #c1272d;
      }

      .cls-1, .cls-2, .cls-3, .cls-4 {
        stroke-width: 0px;
      }

      .cls-2 {
        fill: #2a3693;
      }

      .cls-5 {
        stroke: #2e3192;
        stroke-width: 15px;
      }

      .cls-5, .cls-4, .cls-6 {
        fill: none;
      }

      .cls-6 {
        stroke: #fff;
        stroke-width: 13px;
      }

      .cls-7 {
        clip-path: url(#clippath);
      }
    </style>
    <clipPath id="clippath">
      <rect class="cls-4" y="339.84" width="298.66" height="35.34"/>
    </clipPath>
  </defs>
  <path class="cls-2" d="m278.92,139.68v172.07h-46.11c-3.75-12.74-7.87-23.47-12.37-32.17-19.05,24.6-47.24,36.89-84.58,36.89-39.59,0-72.13-13.83-97.62-41.5C12.74,247.32,0,209.86,0,162.63S12.33,78.16,37,46.9C61.67,15.63,98.37,0,147.11,0c36.59,0,66.05,9.3,88.4,27.89,22.34,18.6,36.81,44.99,43.41,79.18l-91.32,9c-4.5-31.94-18.52-47.91-42.06-47.91-30.89,0-46.34,29.39-46.34,88.17,0,35.54,4.95,58.97,14.85,70.29,9.9,11.32,21.89,16.98,35.99,16.98,11.39,0,21.1-3.45,29.13-10.35,8.02-6.9,12.11-16.34,12.26-28.34h-50.84v-65.23h138.33Z"/>
  <g class="cls-7">
    <g>
      <g>
        <path class="cls-3" d="m31.51,356.26v11.52h-3.09c-.25-.85-.53-1.57-.83-2.15-1.27,1.65-3.16,2.47-5.66,2.47-2.65,0-4.83-.93-6.53-2.78-1.71-1.85-2.56-4.36-2.56-7.52s.83-5.65,2.48-7.75c1.65-2.09,4.11-3.14,7.37-3.14,2.45,0,4.42.62,5.92,1.87,1.5,1.24,2.46,3.01,2.91,5.3l-6.11.6c-.3-2.14-1.24-3.21-2.82-3.21-2.07,0-3.1,1.97-3.1,5.9,0,2.38.33,3.95.99,4.7.66.76,1.47,1.14,2.41,1.14.76,0,1.41-.23,1.95-.69s.81-1.09.82-1.9h-3.4v-4.37h9.26Z"/>
        <path class="cls-3" d="m49.24,362.73v5.04h-14.41v-20.55h6.31v15.51h8.1Z"/>
        <path class="cls-3" d="m60.05,368.09c-2.89,0-5.25-.96-7.07-2.88-1.82-1.92-2.73-4.48-2.73-7.69s.87-5.61,2.61-7.61c1.74-2,4.16-3,7.25-3,2.86,0,5.19.94,6.99,2.83,1.8,1.89,2.7,4.41,2.7,7.56s-.91,5.88-2.72,7.84c-1.82,1.97-4.16,2.95-7.03,2.95Zm-.03-4.67c1.06,0,1.83-.46,2.3-1.39.47-.93.7-2.63.7-5.1,0-3.57-.96-5.36-2.88-5.36-2.07,0-3.1,2.04-3.1,6.11,0,3.82.99,5.74,2.98,5.74Z"/>
        <path class="cls-3" d="m72.47,367.77v-20.55h10.43c2.17,0,3.75.55,4.74,1.64.99,1.09,1.49,2.34,1.49,3.75,0,1.02-.29,1.95-.87,2.78-.58.83-1.44,1.4-2.58,1.71,2.66.64,3.99,2.24,3.99,4.79,0,1.53-.47,2.89-1.41,4.09-.94,1.2-2.94,1.8-6.01,1.8h-9.79Zm5.81-12.68h2.92c.73,0,1.25-.19,1.55-.56.3-.37.45-.77.45-1.19,0-1.14-.7-1.72-2.11-1.72h-2.82v3.46Zm0,8.1h3.07c.76,0,1.32-.19,1.68-.56s.53-.8.53-1.27-.17-.91-.52-1.3c-.35-.4-.98-.59-1.9-.59h-2.86v3.73Z"/>
        <path class="cls-3" d="m103.62,367.77l-1.16-4.05h-5.51l-1.23,4.05h-5.12l6.34-20.55h6.67l6.45,20.55h-6.44Zm-5.59-8.54h3.33l-1.66-5.96-1.66,5.96Z"/>
        <path class="cls-3" d="m126.35,362.73v5.04h-14.41v-20.55h6.31v15.51h8.1Z"/>
        <path class="cls-3" d="m158.6,347.22v20.55h-5.86v-14.69l-3.8,14.69h-4l-3.95-14.69v14.69h-4.73v-20.55h8.24l2.98,10.91,2.85-10.91h8.27Z"/>
        <path class="cls-3" d="m168.49,347.22v20.55h-6.31v-20.55h6.31Z"/>
        <path class="cls-3" d="m169.95,361.83l5.86-1.05c.49,1.66,1.76,2.48,3.79,2.48,1.59,0,2.38-.42,2.38-1.26,0-.44-.18-.79-.55-1.03s-1.02-.46-1.97-.65c-3.6-.69-5.92-1.59-6.94-2.71-1.02-1.11-1.54-2.42-1.54-3.93,0-1.94.73-3.55,2.21-4.83,1.47-1.29,3.59-1.93,6.35-1.93,4.19,0,6.95,1.68,8.29,5.04l-5.22,1.58c-.54-1.37-1.64-2.06-3.3-2.06-1.38,0-2.06.43-2.06,1.28,0,.38.15.68.47.89.31.21.91.41,1.81.6,2.46.52,4.21.98,5.24,1.38s1.9,1.08,2.59,2.05c.69.97,1.04,2.11,1.04,3.43,0,2.08-.84,3.76-2.53,5.05-1.69,1.29-3.9,1.94-6.64,1.94-5.01,0-8.1-2.09-9.27-6.26Z"/>
        <path class="cls-3" d="m188.68,361.83l5.86-1.05c.49,1.66,1.76,2.48,3.79,2.48,1.59,0,2.38-.42,2.38-1.26,0-.44-.18-.79-.55-1.03s-1.02-.46-1.97-.65c-3.6-.69-5.92-1.59-6.94-2.71-1.02-1.11-1.54-2.42-1.54-3.93,0-1.94.73-3.55,2.21-4.83,1.47-1.29,3.59-1.93,6.35-1.93,4.19,0,6.95,1.68,8.29,5.04l-5.22,1.58c-.54-1.37-1.64-2.06-3.3-2.06-1.38,0-2.06.43-2.06,1.28,0,.38.15.68.47.89.31.21.91.41,1.81.6,2.46.52,4.21.98,5.24,1.38s1.9,1.08,2.59,2.05c.69.97,1.04,2.11,1.04,3.43,0,2.08-.84,3.76-2.53,5.05-1.69,1.29-3.9,1.94-6.64,1.94-5.01,0-8.1-2.09-9.27-6.26Z"/>
        <path class="cls-3" d="m215.84,347.22v20.55h-6.31v-20.55h6.31Z"/>
        <path class="cls-3" d="m228.31,368.09c-2.89,0-5.25-.96-7.07-2.88-1.82-1.92-2.73-4.48-2.73-7.69s.87-5.61,2.61-7.61c1.74-2,4.16-3,7.25-3,2.86,0,5.19.94,6.99,2.83,1.8,1.89,2.7,4.41,2.7,7.56s-.91,5.88-2.73,7.84c-1.82,1.97-4.16,2.95-7.03,2.95Zm-.03-4.67c1.06,0,1.83-.46,2.3-1.39.47-.93.7-2.63.7-5.1,0-3.57-.96-5.36-2.88-5.36-2.07,0-3.1,2.04-3.1,6.11,0,3.82.99,5.74,2.98,5.74Z"/>
        <path class="cls-3" d="m258.3,367.77h-5.13l-5.63-9.08c-.72-1.16-1.45-2.58-2.19-4.24.33,1.32.5,2.45.5,3.37v9.95h-5.12v-20.55h5.96l4.79,7.53c.95,1.5,1.68,2.81,2.17,3.95-.32-1.76-.48-3.55-.48-5.39v-6.08h5.13v20.55Z"/>
        <path class="cls-3" d="m275.9,347.22v20.55h-6.31v-20.55h6.31Z"/>
        <path class="cls-3" d="m287.93,352.15v15.63h-5.98v-15.63h-4.26v-4.92h14.5v4.92h-4.26Z"/>
      </g>
      <g>
        <path class="cls-1" d="m31.51,356.26v11.52h-3.09c-.25-.85-.53-1.57-.83-2.15-1.27,1.65-3.16,2.47-5.66,2.47-2.65,0-4.83-.93-6.53-2.78-1.71-1.85-2.56-4.36-2.56-7.52s.83-5.65,2.48-7.75c1.65-2.09,4.11-3.14,7.37-3.14,2.45,0,4.42.62,5.92,1.87,1.5,1.24,2.46,3.01,2.91,5.3l-6.11.6c-.3-2.14-1.24-3.21-2.82-3.21-2.07,0-3.1,1.97-3.1,5.9,0,2.38.33,3.95.99,4.7.66.76,1.47,1.14,2.41,1.14.76,0,1.41-.23,1.95-.69s.81-1.09.82-1.9h-3.4v-4.37h9.26Z"/>
        <path class="cls-1" d="m49.24,362.73v5.04h-14.41v-20.55h6.31v15.51h8.1Z"/>
        <path class="cls-1" d="m60.05,368.09c-2.89,0-5.25-.96-7.07-2.88-1.82-1.92-2.73-4.48-2.73-7.69s.87-5.61,2.61-7.61c1.74-2,4.16-3,7.25-3,2.86,0,5.19.94,6.99,2.83,1.8,1.89,2.7,4.41,2.7,7.56s-.91,5.88-2.72,7.84c-1.82,1.97-4.16,2.95-7.03,2.95Zm-.03-4.67c1.06,0,1.83-.46,2.3-1.39.47-.93.7-2.63.7-5.1,0-3.57-.96-5.36-2.88-5.36-2.07,0-3.1,2.04-3.1,6.11,0,3.82.99,5.74,2.98,5.74Z"/>
        <path class="cls-1" d="m72.47,367.77v-20.55h10.43c2.17,0,3.75.55,4.74,1.64.99,1.09,1.49,2.34,1.49,3.75,0,1.02-.29,1.95-.87,2.78-.58.83-1.44,1.4-2.58,1.71,2.66.64,3.99,2.24,3.99,4.79,0,1.53-.47,2.89-1.41,4.09-.94,1.2-2.94,1.8-6.01,1.8h-9.79Zm5.81-12.68h2.92c.73,0,1.25-.19,1.55-.56.3-.37.45-.77.45-1.19,0-1.14-.7-1.72-2.11-1.72h-2.82v3.46Zm0,8.1h3.07c.76,0,1.32-.19,1.68-.56s.53-.8.53-1.27-.17-.91-.52-1.3c-.35-.4-.98-.59-1.9-.59h-2.86v3.73Z"/>
        <path class="cls-1" d="m103.62,367.77l-1.16-4.05h-5.51l-1.23,4.05h-5.12l6.34-20.55h6.67l6.45,20.55h-6.44Zm-5.59-8.54h3.33l-1.66-5.96-1.66,5.96Z"/>
        <path class="cls-1" d="m126.35,362.73v5.04h-14.41v-20.55h6.31v15.51h8.1Z"/>
        <path class="cls-1" d="m158.6,347.22v20.55h-5.86v-14.69l-3.8,14.69h-4l-3.95-14.69v14.69h-4.73v-20.55h8.24l2.98,10.91,2.85-10.91h8.27Z"/>
        <path class="cls-1" d="m168.49,347.22v20.55h-6.31v-20.55h6.31Z"/>
        <path class="cls-1" d="m169.95,361.83l5.86-1.05c.49,1.66,1.76,2.48,3.79,2.48,1.59,0,2.38-.42,2.38-1.26,0-.44-.18-.79-.55-1.03s-1.02-.46-1.97-.65c-3.6-.69-5.92-1.59-6.94-2.71-1.02-1.11-1.54-2.42-1.54-3.93,0-1.94.73-3.55,2.21-4.83,1.47-1.29,3.59-1.93,6.35-1.93,4.19,0,6.95,1.68,8.29,5.04l-5.22,1.58c-.54-1.37-1.64-2.06-3.3-2.06-1.38,0-2.06.43-2.06,1.28,0,.38.15.68.47.89.31.21.91.41,1.81.6,2.46.52,4.21.98,5.24,1.38s1.9,1.08,2.59,2.05c.69.97,1.04,2.11,1.04,3.43,0,2.08-.84,3.76-2.53,5.05-1.69,1.29-3.9,1.94-6.64,1.94-5.01,0-8.1-2.09-9.27-6.26Z"/>
        <path class="cls-1" d="m188.68,361.83l5.86-1.05c.49,1.66,1.76,2.48,3.79,2.48,1.59,0,2.38-.42,2.38-1.26,0-.44-.18-.79-.55-1.03s-1.02-.46-1.97-.65c-3.6-.69-5.92-1.59-6.94-2.71-1.02-1.11-1.54-2.42-1.54-3.93,0-1.94.73-3.55,2.21-4.83,1.47-1.29,3.59-1.93,6.35-1.93,4.19,0,6.95,1.68,8.29,5.04l-5.22,1.58c-.54-1.37-1.64-2.06-3.3-2.06-1.38,0-2.06.43-2.06,1.28,0,.38.15.68.47.89.31.21.91.41,1.81.6,2.46.52,4.21.98,5.24,1.38s1.9,1.08,2.59,2.05c.69.97,1.04,2.11,1.04,3.43,0,2.08-.84,3.76-2.53,5.05-1.69,1.29-3.9,1.94-6.64,1.94-5.01,0-8.1-2.09-9.27-6.26Z"/>
        <path class="cls-1" d="m215.84,347.22v20.55h-6.31v-20.55h6.31Z"/>
        <path class="cls-1" d="m228.31,368.09c-2.89,0-5.25-.96-7.07-2.88-1.82-1.92-2.73-4.48-2.73-7.69s.87-5.61,2.61-7.61c1.74-2,4.16-3,7.25-3,2.86,0,5.19.94,6.99,2.83,1.8,1.89,2.7,4.41,2.7,7.56s-.91,5.88-2.73,7.84c-1.82,1.97-4.16,2.95-7.03,2.95Zm-.03-4.67c1.06,0,1.83-.46,2.3-1.39.47-.93.7-2.63.7-5.1,0-3.57-.96-5.36-2.88-5.36-2.07,0-3.1,2.04-3.1,6.11,0,3.82.99,5.74,2.98,5.74Z"/>
        <path class="cls-1" d="m258.3,367.77h-5.13l-5.63-9.08c-.72-1.16-1.45-2.58-2.19-4.24.33,1.32.5,2.45.5,3.37v9.95h-5.12v-20.55h5.96l4.79,7.53c.95,1.5,1.68,2.81,2.17,3.95-.32-1.76-.48-3.55-.48-5.39v-6.08h5.13v20.55Z"/>
        <path class="cls-1" d="m275.9,347.22v20.55h-6.31v-20.55h6.31Z"/>
        <path class="cls-1" d="m287.93,352.15v15.63h-5.98v-15.63h-4.26v-4.92h14.5v4.92h-4.26Z"/>
      </g>
      <g>
        <path class="cls-5" d="m31.51,356.26v11.52h-3.09c-.25-.85-.53-1.57-.83-2.15-1.27,1.65-3.16,2.47-5.66,2.47-2.65,0-4.83-.93-6.53-2.78-1.71-1.85-2.56-4.36-2.56-7.52s.83-5.65,2.48-7.75c1.65-2.09,4.11-3.14,7.37-3.14,2.45,0,4.42.62,5.92,1.87,1.5,1.24,2.46,3.01,2.91,5.3l-6.11.6c-.3-2.14-1.24-3.21-2.82-3.21-2.07,0-3.1,1.97-3.1,5.9,0,2.38.33,3.95.99,4.7.66.76,1.47,1.14,2.41,1.14.76,0,1.41-.23,1.95-.69s.81-1.09.82-1.9h-3.4v-4.37h9.26Z"/>
        <path class="cls-5" d="m49.24,362.73v5.04h-14.41v-20.55h6.31v15.51h8.1Z"/>
        <path class="cls-5" d="m60.05,368.09c-2.89,0-5.25-.96-7.07-2.88-1.82-1.92-2.73-4.48-2.73-7.69s.87-5.61,2.61-7.61c1.74-2,4.16-3,7.25-3,2.86,0,5.19.94,6.99,2.83,1.8,1.89,2.7,4.41,2.7,7.56s-.91,5.88-2.72,7.84c-1.82,1.97-4.16,2.95-7.03,2.95Zm-.03-4.67c1.06,0,1.83-.46,2.3-1.39.47-.93.7-2.63.7-5.1,0-3.57-.96-5.36-2.88-5.36-2.07,0-3.1,2.04-3.1,6.11,0,3.82.99,5.74,2.98,5.74Z"/>
        <path class="cls-5" d="m72.47,367.77v-20.55h10.43c2.17,0,3.75.55,4.74,1.64.99,1.09,1.49,2.34,1.49,3.75,0,1.02-.29,1.95-.87,2.78-.58.83-1.44,1.4-2.58,1.71,2.66.64,3.99,2.24,3.99,4.79,0,1.53-.47,2.89-1.41,4.09-.94,1.2-2.94,1.8-6.01,1.8h-9.79Zm5.81-12.68h2.92c.73,0,1.25-.19,1.55-.56.3-.37.45-.77.45-1.19,0-1.14-.7-1.72-2.11-1.72h-2.82v3.46Zm0,8.1h3.07c.76,0,1.32-.19,1.68-.56s.53-.8.53-1.27-.17-.91-.52-1.3c-.35-.4-.98-.59-1.9-.59h-2.86v3.73Z"/>
        <path class="cls-5" d="m103.62,367.77l-1.16-4.05h-5.51l-1.23,4.05h-5.12l6.34-20.55h6.67l6.45,20.55h-6.44Zm-5.59-8.54h3.33l-1.66-5.96-1.66,5.96Z"/>
        <path class="cls-5" d="m126.35,362.73v5.04h-14.41v-20.55h6.31v15.51h8.1Z"/>
        <path class="cls-5" d="m158.6,347.22v20.55h-5.86v-14.69l-3.8,14.69h-4l-3.95-14.69v14.69h-4.73v-20.55h8.24l2.98,10.91,2.85-10.91h8.27Z"/>
        <path class="cls-5" d="m168.49,347.22v20.55h-6.31v-20.55h6.31Z"/>
        <path class="cls-5" d="m169.95,361.83l5.86-1.05c.49,1.66,1.76,2.48,3.79,2.48,1.59,0,2.38-.42,2.38-1.26,0-.44-.18-.79-.55-1.03s-1.02-.46-1.97-.65c-3.6-.69-5.92-1.59-6.94-2.71-1.02-1.11-1.54-2.42-1.54-3.93,0-1.94.73-3.55,2.21-4.83,1.47-1.29,3.59-1.93,6.35-1.93,4.19,0,6.95,1.68,8.29,5.04l-5.22,1.58c-.54-1.37-1.64-2.06-3.3-2.06-1.38,0-2.06.43-2.06,1.28,0,.38.15.68.47.89.31.21.91.41,1.81.6,2.46.52,4.21.98,5.24,1.38s1.9,1.08,2.59,2.05c.69.97,1.04,2.11,1.04,3.43,0,2.08-.84,3.76-2.53,5.05-1.69,1.29-3.9,1.94-6.64,1.94-5.01,0-8.1-2.09-9.27-6.26Z"/>
        <path class="cls-5" d="m188.68,361.83l5.86-1.05c.49,1.66,1.76,2.48,3.79,2.48,1.59,0,2.38-.42,2.38-1.26,0-.44-.18-.79-.55-1.03s-1.02-.46-1.97-.65c-3.6-.69-5.92-1.59-6.94-2.71-1.02-1.11-1.54-2.42-1.54-3.93,0-1.94.73-3.55,2.21-4.83,1.47-1.29,3.59-1.93,6.35-1.93,4.19,0,6.95,1.68,8.29,5.04l-5.22,1.58c-.54-1.37-1.64-2.06-3.3-2.06-1.38,0-2.06.43-2.06,1.28,0,.38.15.68.47.89.31.21.91.41,1.81.6,2.46.52,4.21.98,5.24,1.38s1.9,1.08,2.59,2.05c.69.97,1.04,2.11,1.04,3.43,0,2.08-.84,3.76-2.53,5.05-1.69,1.29-3.9,1.94-6.64,1.94-5.01,0-8.1-2.09-9.27-6.26Z"/>
        <path class="cls-5" d="m215.84,347.22v20.55h-6.31v-20.55h6.31Z"/>
        <path class="cls-5" d="m228.31,368.09c-2.89,0-5.25-.96-7.07-2.88-1.82-1.92-2.73-4.48-2.73-7.69s.87-5.61,2.61-7.61c1.74-2,4.16-3,7.25-3,2.86,0,5.19.94,6.99,2.83,1.8,1.89,2.7,4.41,2.7,7.56s-.91,5.88-2.73,7.84c-1.82,1.97-4.16,2.95-7.03,2.95Zm-.03-4.67c1.06,0,1.83-.46,2.3-1.39.47-.93.7-2.63.7-5.1,0-3.57-.96-5.36-2.88-5.36-2.07,0-3.1,2.04-3.1,6.11,0,3.82.99,5.74,2.98,5.74Z"/>
        <path class="cls-5" d="m258.3,367.77h-5.13l-5.63-9.08c-.72-1.16-1.45-2.58-2.19-4.24.33,1.32.5,2.45.5,3.37v9.95h-5.12v-20.55h5.96l4.79,7.53c.95,1.5,1.68,2.81,2.17,3.95-.32-1.76-.48-3.55-.48-5.39v-6.08h5.13v20.55Z"/>
        <path class="cls-5" d="m275.9,347.22v20.55h-6.31v-20.55h6.31Z"/>
        <path class="cls-5" d="m287.93,352.15v15.63h-5.98v-15.63h-4.26v-4.92h14.5v4.92h-4.26Z"/>
      </g>
      <g>
        <path class="cls-6" d="m31.51,356.26v11.52h-3.09c-.25-.85-.53-1.57-.83-2.15-1.27,1.65-3.16,2.47-5.66,2.47-2.65,0-4.83-.93-6.53-2.78-1.71-1.85-2.56-4.36-2.56-7.52s.83-5.65,2.48-7.75c1.65-2.09,4.11-3.14,7.37-3.14,2.45,0,4.42.62,5.92,1.87,1.5,1.24,2.46,3.01,2.91,5.3l-6.11.6c-.3-2.14-1.24-3.21-2.82-3.21-2.07,0-3.1,1.97-3.1,5.9,0,2.38.33,3.95.99,4.7.66.76,1.47,1.14,2.41,1.14.76,0,1.41-.23,1.95-.69s.81-1.09.82-1.9h-3.4v-4.37h9.26Z"/>
        <path class="cls-6" d="m49.24,362.73v5.04h-14.41v-20.55h6.31v15.51h8.1Z"/>
        <path class="cls-6" d="m60.05,368.09c-2.89,0-5.25-.96-7.07-2.88-1.82-1.92-2.73-4.48-2.73-7.69s.87-5.61,2.61-7.61c1.74-2,4.16-3,7.25-3,2.86,0,5.19.94,6.99,2.83,1.8,1.89,2.7,4.41,2.7,7.56s-.91,5.88-2.72,7.84c-1.82,1.97-4.16,2.95-7.03,2.95Zm-.03-4.67c1.06,0,1.83-.46,2.3-1.39.47-.93.7-2.63.7-5.1,0-3.57-.96-5.36-2.88-5.36-2.07,0-3.1,2.04-3.1,6.11,0,3.82.99,5.74,2.98,5.74Z"/>
        <path class="cls-6" d="m72.47,367.77v-20.55h10.43c2.17,0,3.75.55,4.74,1.64.99,1.09,1.49,2.34,1.49,3.75,0,1.02-.29,1.95-.87,2.78-.58.83-1.44,1.4-2.58,1.71,2.66.64,3.99,2.24,3.99,4.79,0,1.53-.47,2.89-1.41,4.09-.94,1.2-2.94,1.8-6.01,1.8h-9.79Zm5.81-12.68h2.92c.73,0,1.25-.19,1.55-.56.3-.37.45-.77.45-1.19,0-1.14-.7-1.72-2.11-1.72h-2.82v3.46Zm0,8.1h3.07c.76,0,1.32-.19,1.68-.56s.53-.8.53-1.27-.17-.91-.52-1.3c-.35-.4-.98-.59-1.9-.59h-2.86v3.73Z"/>
        <path class="cls-6" d="m103.62,367.77l-1.16-4.05h-5.51l-1.23,4.05h-5.12l6.34-20.55h6.67l6.45,20.55h-6.44Zm-5.59-8.54h3.33l-1.66-5.96-1.66,5.96Z"/>
        <path class="cls-6" d="m126.35,362.73v5.04h-14.41v-20.55h6.31v15.51h8.1Z"/>
        <path class="cls-6" d="m158.6,347.22v20.55h-5.86v-14.69l-3.8,14.69h-4l-3.95-14.69v14.69h-4.73v-20.55h8.24l2.98,10.91,2.85-10.91h8.27Z"/>
        <path class="cls-6" d="m168.49,347.22v20.55h-6.31v-20.55h6.31Z"/>
        <path class="cls-6" d="m169.95,361.83l5.86-1.05c.49,1.66,1.76,2.48,3.79,2.48,1.59,0,2.38-.42,2.38-1.26,0-.44-.18-.79-.55-1.03s-1.02-.46-1.97-.65c-3.6-.69-5.92-1.59-6.94-2.71-1.02-1.11-1.54-2.42-1.54-3.93,0-1.94.73-3.55,2.21-4.83,1.47-1.29,3.59-1.93,6.35-1.93,4.19,0,6.95,1.68,8.29,5.04l-5.22,1.58c-.54-1.37-1.64-2.06-3.3-2.06-1.38,0-2.06.43-2.06,1.28,0,.38.15.68.47.89.31.21.91.41,1.81.6,2.46.52,4.21.98,5.24,1.38s1.9,1.08,2.59,2.05c.69.97,1.04,2.11,1.04,3.43,0,2.08-.84,3.76-2.53,5.05-1.69,1.29-3.9,1.94-6.64,1.94-5.01,0-8.1-2.09-9.27-6.26Z"/>
        <path class="cls-6" d="m188.68,361.83l5.86-1.05c.49,1.66,1.76,2.48,3.79,2.48,1.59,0,2.38-.42,2.38-1.26,0-.44-.18-.79-.55-1.03s-1.02-.46-1.97-.65c-3.6-.69-5.92-1.59-6.94-2.71-1.02-1.11-1.54-2.42-1.54-3.93,0-1.94.73-3.55,2.21-4.83,1.47-1.29,3.59-1.93,6.35-1.93,4.19,0,6.95,1.68,8.29,5.04l-5.22,1.58c-.54-1.37-1.64-2.06-3.3-2.06-1.38,0-2.06.43-2.06,1.28,0,.38.15.68.47.89.31.21.91.41,1.81.6,2.46.52,4.21.98,5.24,1.38s1.9,1.08,2.59,2.05c.69.97,1.04,2.11,1.04,3.43,0,2.08-.84,3.76-2.53,5.05-1.69,1.29-3.9,1.94-6.64,1.94-5.01,0-8.1-2.09-9.27-6.26Z"/>
        <path class="cls-6" d="m215.84,347.22v20.55h-6.31v-20.55h6.31Z"/>
        <path class="cls-6" d="m228.31,368.09c-2.89,0-5.25-.96-7.07-2.88-1.82-1.92-2.73-4.48-2.73-7.69s.87-5.61,2.61-7.61c1.74-2,4.16-3,7.25-3,2.86,0,5.19.94,6.99,2.83,1.8,1.89,2.7,4.41,2.7,7.56s-.91,5.88-2.73,7.84c-1.82,1.97-4.16,2.95-7.03,2.95Zm-.03-4.67c1.06,0,1.83-.46,2.3-1.39.47-.93.7-2.63.7-5.1,0-3.57-.96-5.36-2.88-5.36-2.07,0-3.1,2.04-3.1,6.11,0,3.82.99,5.74,2.98,5.74Z"/>
        <path class="cls-6" d="m258.3,367.77h-5.13l-5.63-9.08c-.72-1.16-1.45-2.58-2.19-4.24.33,1.32.5,2.45.5,3.37v9.95h-5.12v-20.55h5.96l4.79,7.53c.95,1.5,1.68,2.81,2.17,3.95-.32-1.76-.48-3.55-.48-5.39v-6.08h5.13v20.55Z"/>
        <path class="cls-6" d="m275.9,347.22v20.55h-6.31v-20.55h6.31Z"/>
        <path class="cls-6" d="m287.93,352.15v15.63h-5.98v-15.63h-4.26v-4.92h14.5v4.92h-4.26Z"/>
      </g>
      <g>
        <path class="cls-2" d="m31.51,356.26v11.52h-3.09c-.25-.85-.53-1.57-.83-2.15-1.27,1.65-3.16,2.47-5.66,2.47-2.65,0-4.83-.93-6.53-2.78-1.71-1.85-2.56-4.36-2.56-7.52s.83-5.65,2.48-7.75c1.65-2.09,4.11-3.14,7.37-3.14,2.45,0,4.42.62,5.92,1.87,1.5,1.24,2.46,3.01,2.91,5.3l-6.11.6c-.3-2.14-1.24-3.21-2.82-3.21-2.07,0-3.1,1.97-3.1,5.9,0,2.38.33,3.95.99,4.7.66.76,1.47,1.14,2.41,1.14.76,0,1.41-.23,1.95-.69s.81-1.09.82-1.9h-3.4v-4.37h9.26Z"/>
        <path class="cls-2" d="m49.24,362.73v5.04h-14.41v-20.55h6.31v15.51h8.1Z"/>
        <path class="cls-2" d="m60.05,368.09c-2.89,0-5.25-.96-7.07-2.88-1.82-1.92-2.73-4.48-2.73-7.69s.87-5.61,2.61-7.61c1.74-2,4.16-3,7.25-3,2.86,0,5.19.94,6.99,2.83,1.8,1.89,2.7,4.41,2.7,7.56s-.91,5.88-2.72,7.84c-1.82,1.97-4.16,2.95-7.03,2.95Zm-.03-4.67c1.06,0,1.83-.46,2.3-1.39.47-.93.7-2.63.7-5.1,0-3.57-.96-5.36-2.88-5.36-2.07,0-3.1,2.04-3.1,6.11,0,3.82.99,5.74,2.98,5.74Z"/>
        <path class="cls-2" d="m72.47,367.77v-20.55h10.43c2.17,0,3.75.55,4.74,1.64.99,1.09,1.49,2.34,1.49,3.75,0,1.02-.29,1.95-.87,2.78-.58.83-1.44,1.4-2.58,1.71,2.66.64,3.99,2.24,3.99,4.79,0,1.53-.47,2.89-1.41,4.09-.94,1.2-2.94,1.8-6.01,1.8h-9.79Zm5.81-12.68h2.92c.73,0,1.25-.19,1.55-.56.3-.37.45-.77.45-1.19,0-1.14-.7-1.72-2.11-1.72h-2.82v3.46Zm0,8.1h3.07c.76,0,1.32-.19,1.68-.56s.53-.8.53-1.27-.17-.91-.52-1.3c-.35-.4-.98-.59-1.9-.59h-2.86v3.73Z"/>
        <path class="cls-2" d="m103.62,367.77l-1.16-4.05h-5.51l-1.23,4.05h-5.12l6.34-20.55h6.67l6.45,20.55h-6.44Zm-5.59-8.54h3.33l-1.66-5.96-1.66,5.96Z"/>
        <path class="cls-2" d="m126.35,362.73v5.04h-14.41v-20.55h6.31v15.51h8.1Z"/>
        <path class="cls-2" d="m158.6,347.22v20.55h-5.86v-14.69l-3.8,14.69h-4l-3.95-14.69v14.69h-4.73v-20.55h8.24l2.98,10.91,2.85-10.91h8.27Z"/>
        <path class="cls-2" d="m168.49,347.22v20.55h-6.31v-20.55h6.31Z"/>
        <path class="cls-2" d="m169.95,361.83l5.86-1.05c.49,1.66,1.76,2.48,3.79,2.48,1.59,0,2.38-.42,2.38-1.26,0-.44-.18-.79-.55-1.03s-1.02-.46-1.97-.65c-3.6-.69-5.92-1.59-6.94-2.71-1.02-1.11-1.54-2.42-1.54-3.93,0-1.94.73-3.55,2.21-4.83,1.47-1.29,3.59-1.93,6.35-1.93,4.19,0,6.95,1.68,8.29,5.04l-5.22,1.58c-.54-1.37-1.64-2.06-3.3-2.06-1.38,0-2.06.43-2.06,1.28,0,.38.15.68.47.89.31.21.91.41,1.81.6,2.46.52,4.21.98,5.24,1.38s1.9,1.08,2.59,2.05c.69.97,1.04,2.11,1.04,3.43,0,2.08-.84,3.76-2.53,5.05-1.69,1.29-3.9,1.94-6.64,1.94-5.01,0-8.1-2.09-9.27-6.26Z"/>
        <path class="cls-2" d="m188.68,361.83l5.86-1.05c.49,1.66,1.76,2.48,3.79,2.48,1.59,0,2.38-.42,2.38-1.26,0-.44-.18-.79-.55-1.03s-1.02-.46-1.97-.65c-3.6-.69-5.92-1.59-6.94-2.71-1.02-1.11-1.54-2.42-1.54-3.93,0-1.94.73-3.55,2.21-4.83,1.47-1.29,3.59-1.93,6.35-1.93,4.19,0,6.95,1.68,8.29,5.04l-5.22,1.58c-.54-1.37-1.64-2.06-3.3-2.06-1.38,0-2.06.43-2.06,1.28,0,.38.15.68.47.89.31.21.91.41,1.81.6,2.46.52,4.21.98,5.24,1.38s1.9,1.08,2.59,2.05c.69.97,1.04,2.11,1.04,3.43,0,2.08-.84,3.76-2.53,5.05-1.69,1.29-3.9,1.94-6.64,1.94-5.01,0-8.1-2.09-9.27-6.26Z"/>
        <path class="cls-2" d="m215.84,347.22v20.55h-6.31v-20.55h6.31Z"/>
        <path class="cls-2" d="m228.31,368.09c-2.89,0-5.25-.96-7.07-2.88-1.82-1.92-2.73-4.48-2.73-7.69s.87-5.61,2.61-7.61c1.74-2,4.16-3,7.25-3,2.86,0,5.19.94,6.99,2.83,1.8,1.89,2.7,4.41,2.7,7.56s-.91,5.88-2.73,7.84c-1.82,1.97-4.16,2.95-7.03,2.95Zm-.03-4.67c1.06,0,1.83-.46,2.3-1.39.47-.93.7-2.63.7-5.1,0-3.57-.96-5.36-2.88-5.36-2.07,0-3.1,2.04-3.1,6.11,0,3.82.99,5.74,2.98,5.74Z"/>
        <path class="cls-2" d="m258.3,367.77h-5.13l-5.63-9.08c-.72-1.16-1.45-2.58-2.19-4.24.33,1.32.5,2.45.5,3.37v9.95h-5.12v-20.55h5.96l4.79,7.53c.95,1.5,1.68,2.81,2.17,3.95-.32-1.76-.48-3.55-.48-5.39v-6.08h5.13v20.55Z"/>
        <path class="cls-2" d="m275.9,347.22v20.55h-6.31v-20.55h6.31Z"/>
        <path class="cls-2" d="m287.93,352.15v15.63h-5.98v-15.63h-4.26v-4.92h14.5v4.92h-4.26Z"/>
      </g>
    </g>
  </g>
</svg>